<svg xmlns="http://www.w3.org/2000/svg" xmlns:xlink="http://www.w3.org/1999/xlink" width="500" zoomAndPan="magnify" viewBox="0 0 375 374.999991" height="500" preserveAspectRatio="xMidYMid meet" version="1.0"><defs><g/><clipPath id="97f190c9dd"><path d="M 154 164.007812 L 191 164.007812 L 191 194.757812 L 154 194.757812 Z M 154 164.007812 " clip-rule="nonzero"/></clipPath></defs><g fill="#000b14" fill-opacity="1"><g transform="translate(67.146017, 199.243038)"><g><path d="M 16.359375 -32.796875 L 20.25 -32.796875 C 20.882812 -32.796875 21.128906 -32.492188 20.984375 -31.890625 L 14.0625 -0.734375 C 13.957031 -0.242188 13.65625 0 13.15625 0 L 9.0625 0 C 8.59375 0 8.289062 -0.242188 8.15625 -0.734375 L 1.265625 -31.890625 C 1.128906 -32.492188 1.378906 -32.796875 2.015625 -32.796875 L 5.90625 -32.796875 C 6.394531 -32.796875 6.695312 -32.550781 6.8125 -32.0625 L 11.109375 -10.09375 L 15.453125 -32.0625 C 15.585938 -32.550781 15.890625 -32.796875 16.359375 -32.796875 Z M 16.359375 -32.796875 "/></g></g></g><g fill="#000b14" fill-opacity="1"><g transform="translate(101.704634, 199.243038)"><g><path d="M 2.703125 -32.796875 L 6.96875 -32.796875 C 7.40625 -32.796875 7.625 -32.578125 7.625 -32.140625 L 7.625 -0.65625 C 7.625 -0.21875 7.40625 0 6.96875 0 L 2.703125 0 C 2.265625 0 2.046875 -0.21875 2.046875 -0.65625 L 2.046875 -32.140625 C 2.046875 -32.578125 2.265625 -32.796875 2.703125 -32.796875 Z M 2.703125 -32.796875 "/></g></g></g><g fill="#000b14" fill-opacity="1"><g transform="translate(123.678642, 199.243038)"><g><path d="M 1.890625 -32.796875 L 16.96875 -32.796875 C 17.40625 -32.796875 17.625 -32.578125 17.625 -32.140625 L 17.625 -28.046875 C 17.625 -27.609375 17.40625 -27.390625 16.96875 -27.390625 L 12.21875 -27.390625 L 12.21875 -0.65625 C 12.21875 -0.21875 12 0 11.5625 0 L 7.296875 0 C 6.859375 0 6.640625 -0.21875 6.640625 -0.65625 L 6.640625 -27.390625 L 1.890625 -27.390625 C 1.453125 -27.390625 1.234375 -27.609375 1.234375 -28.046875 L 1.234375 -32.140625 C 1.234375 -32.578125 1.453125 -32.796875 1.890625 -32.796875 Z M 1.890625 -32.796875 "/></g></g></g><g fill="#000b14" fill-opacity="1"><g transform="translate(154.837418, 199.243038)"><g/></g></g><g fill="#000b14" fill-opacity="1"><g transform="translate(177.385313, 199.243038)"><g/></g></g><g fill="#000b14" fill-opacity="1"><g transform="translate(199.942887, 199.243038)"><g><path d="M 7.625 -5.40625 L 7.625 -32.140625 C 7.625 -32.578125 7.40625 -32.796875 6.96875 -32.796875 L 2.703125 -32.796875 C 2.265625 -32.796875 2.046875 -32.578125 2.046875 -32.140625 L 2.046875 -0.65625 C 2.046875 -0.21875 2.265625 0 2.703125 0 L 17.390625 0 C 17.828125 0 18.046875 -0.21875 18.046875 -0.65625 L 18.046875 -4.75 C 18.046875 -5.1875 17.828125 -5.40625 17.390625 -5.40625 Z M 7.625 -5.40625 "/></g></g></g><g fill="#000b14" fill-opacity="1"><g transform="translate(232.328912, 199.243038)"><g><path d="M 2.703125 -32.796875 L 6.96875 -32.796875 C 7.40625 -32.796875 7.625 -32.578125 7.625 -32.140625 L 7.625 -0.65625 C 7.625 -0.21875 7.40625 0 6.96875 0 L 2.703125 0 C 2.265625 0 2.046875 -0.21875 2.046875 -0.65625 L 2.046875 -32.140625 C 2.046875 -32.578125 2.265625 -32.796875 2.703125 -32.796875 Z M 2.703125 -32.796875 "/></g></g></g><g fill="#000b14" fill-opacity="1"><g transform="translate(254.30292, 199.243038)"><g><path d="M 3.03125 -32.796875 L 18.453125 -32.796875 C 19.109375 -32.796875 19.3125 -32.46875 19.0625 -31.8125 L 8.859375 -5.40625 L 17.875 -5.40625 C 18.3125 -5.40625 18.53125 -5.1875 18.53125 -4.75 L 18.53125 -0.703125 C 18.53125 -0.285156 18.3125 -0.0507812 17.875 0 L 1.921875 0 C 1.597656 0 1.382812 -0.09375 1.28125 -0.28125 C 1.1875 -0.476562 1.195312 -0.710938 1.3125 -0.984375 L 11.515625 -27.34375 L 3.03125 -27.34375 C 2.59375 -27.34375 2.375 -27.5625 2.375 -28 L 2.375 -32.109375 C 2.375 -32.515625 2.59375 -32.742188 3.03125 -32.796875 Z M 3.03125 -32.796875 "/></g></g></g><g fill="#000b14" fill-opacity="1"><g transform="translate(287.385813, 199.243038)"><g><path d="M 18.40625 -32.140625 L 18.40625 -28.046875 C 18.40625 -27.578125 18.1875 -27.34375 17.75 -27.34375 L 7.5 -27.34375 L 7.5 -19.140625 L 15.328125 -19.140625 C 15.765625 -19.140625 15.984375 -18.910156 15.984375 -18.453125 L 15.984375 -14.390625 C 15.984375 -13.921875 15.765625 -13.6875 15.328125 -13.6875 L 7.5 -13.6875 L 7.5 -5.40625 L 17.75 -5.40625 C 18.1875 -5.40625 18.40625 -5.1875 18.40625 -4.75 L 18.40625 -0.65625 C 18.40625 -0.21875 18.1875 0 17.75 0 L 2.671875 0 C 2.253906 0 2.046875 -0.21875 2.046875 -0.65625 L 2.046875 -32.140625 C 2.046875 -32.578125 2.253906 -32.796875 2.671875 -32.796875 L 17.75 -32.796875 C 18.1875 -32.796875 18.40625 -32.578125 18.40625 -32.140625 Z M 18.40625 -32.140625 "/></g></g></g><g fill="#ffbd59" fill-opacity="1"><g transform="translate(229.455115, 216.443131)"><g><path d="M 4.625 -8.40625 C 5.375 -8.40625 6.019531 -8.28125 6.5625 -8.03125 C 7.113281 -7.78125 7.535156 -7.425781 7.828125 -6.96875 C 8.128906 -6.507812 8.28125 -5.972656 8.28125 -5.359375 C 8.28125 -4.734375 8.128906 -4.191406 7.828125 -3.734375 C 7.535156 -3.273438 7.113281 -2.921875 6.5625 -2.671875 C 6.019531 -2.429688 5.375 -2.3125 4.625 -2.3125 L 2.9375 -2.3125 L 2.9375 0 L 1 0 L 1 -8.40625 Z M 4.53125 -3.90625 C 5.113281 -3.90625 5.554688 -4.03125 5.859375 -4.28125 C 6.160156 -4.53125 6.3125 -4.890625 6.3125 -5.359375 C 6.3125 -5.828125 6.160156 -6.1875 5.859375 -6.4375 C 5.554688 -6.6875 5.113281 -6.8125 4.53125 -6.8125 L 2.9375 -6.8125 L 2.9375 -3.90625 Z M 4.53125 -3.90625 "/></g></g></g><g fill="#ffbd59" fill-opacity="1"><g transform="translate(247.230431, 216.443131)"><g><path d="M 6.34375 0 L 4.734375 -2.34375 L 2.9375 -2.34375 L 2.9375 0 L 1 0 L 1 -8.40625 L 4.625 -8.40625 C 5.375 -8.40625 6.019531 -8.28125 6.5625 -8.03125 C 7.113281 -7.78125 7.535156 -7.425781 7.828125 -6.96875 C 8.128906 -6.507812 8.28125 -5.972656 8.28125 -5.359375 C 8.28125 -4.734375 8.128906 -4.191406 7.828125 -3.734375 C 7.523438 -3.285156 7.097656 -2.941406 6.546875 -2.703125 L 8.4375 0 Z M 6.3125 -5.359375 C 6.3125 -5.828125 6.160156 -6.1875 5.859375 -6.4375 C 5.554688 -6.6875 5.113281 -6.8125 4.53125 -6.8125 L 2.9375 -6.8125 L 2.9375 -3.890625 L 4.53125 -3.890625 C 5.113281 -3.890625 5.554688 -4.015625 5.859375 -4.265625 C 6.160156 -4.523438 6.3125 -4.890625 6.3125 -5.359375 Z M 6.3125 -5.359375 "/></g></g></g><g fill="#ffbd59" fill-opacity="1"><g transform="translate(265.041717, 216.443131)"><g><path d="M 1 -8.40625 L 2.9375 -8.40625 L 2.9375 0 L 1 0 Z M 1 -8.40625 "/></g></g></g><g fill="#ffbd59" fill-opacity="1"><g transform="translate(277.973792, 216.443131)"><g><path d="M 8.640625 0 L 8.625 -5.046875 L 6.15625 -0.890625 L 5.28125 -0.890625 L 2.8125 -4.9375 L 2.8125 0 L 1 0 L 1 -8.40625 L 2.609375 -8.40625 L 5.75 -3.1875 L 8.84375 -8.40625 L 10.4375 -8.40625 L 10.46875 0 Z M 8.640625 0 "/></g></g></g><g fill="#ffbd59" fill-opacity="1"><g transform="translate(298.422483, 216.443131)"><g><path d="M 7.5 -1.5625 L 7.5 0 L 1 0 L 1 -8.40625 L 7.34375 -8.40625 L 7.34375 -6.84375 L 2.921875 -6.84375 L 2.921875 -5.015625 L 6.828125 -5.015625 L 6.828125 -3.5 L 2.921875 -3.5 L 2.921875 -1.5625 Z M 7.5 -1.5625 "/></g></g></g><g clip-path="url(#97f190c9dd)"><path fill="#ffbd59" d="M 172.222656 189.246094 C 171.78125 189 170.527344 188.296875 168.980469 187.230469 L 168.84375 187.121094 L 168.703125 187.042969 C 168.105469 186.628906 167.480469 186.167969 166.796875 185.652344 L 166.765625 185.621094 L 166.628906 185.542969 L 166.523438 185.464844 L 166.492188 185.433594 L 166.355469 185.328125 L 166.21875 185.21875 L 166.191406 185.191406 L 166.082031 185.109375 L 166.054688 185.082031 L 165.917969 184.972656 L 165.78125 184.867188 L 165.75 184.867188 L 165.644531 184.757812 L 165.613281 184.757812 L 165.476562 184.648438 L 165.476562 184.613281 L 165.339844 184.503906 L 165.3125 184.503906 L 165.175781 184.367188 L 172.480469 172.921875 L 179.589844 184.09375 C 176.363281 186.847656 173.042969 188.777344 172.222656 189.246094 Z M 172.496094 179.867188 C 174.101562 179.867188 175.414062 181.175781 175.414062 182.785156 C 175.414062 184.390625 174.101562 185.703125 172.496094 185.703125 C 170.886719 185.703125 169.578125 184.390625 169.578125 182.785156 C 169.578125 181.175781 170.886719 179.867188 172.496094 179.867188 Z M 161.679688 180.960938 C 161.515625 180.796875 161.355469 180.609375 161.191406 180.414062 L 161.191406 180.382812 C 161.132812 180.328125 161.082031 180.277344 161.054688 180.195312 L 161.023438 180.195312 C 160.886719 180.007812 160.722656 179.816406 160.585938 179.597656 L 160.5625 179.597656 C 160.535156 179.542969 160.484375 179.492188 160.457031 179.433594 L 160.425781 179.375 C 160.371094 179.316406 160.347656 179.269531 160.320312 179.238281 L 160.289062 179.179688 C 160.230469 179.125 160.210938 179.074219 160.183594 179.015625 L 160.152344 178.988281 C 160.09375 178.90625 160.046875 178.851562 160.015625 178.800781 L 159.988281 178.777344 C 157.644531 175.183594 156.933594 171.070312 160.808594 167.140625 C 160.808594 167.140625 152.824219 167.90625 154.539062 176.191406 C 155.136719 179.023438 156.988281 181.96875 159.339844 184.664062 L 154.671875 191.96875 L 160.371094 191.96875 L 162.769531 188.179688 C 166.5 191.636719 170.476562 194.28125 172.226562 195.074219 C 174.050781 194.261719 178.195312 191.5 182.039062 187.878906 L 184.628906 191.960938 L 190.320312 191.960938 L 185.441406 184.304688 C 187.625 181.6875 189.339844 178.90625 189.90625 176.183594 C 191.652344 167.898438 183.667969 167.136719 183.667969 167.136719 C 188.195312 171.738281 186.449219 176.617188 183.101562 180.601562 L 172.496094 164.007812 Z M 161.679688 180.960938 " fill-opacity="1" fill-rule="nonzero"/></g></svg>