<svg xmlns="http://www.w3.org/2000/svg" width="500" viewBox="0 0 375 375" height="500" version="1.0">
  <defs>
    <clipPath id="a">
      <path d="M154 164.008h37v30.75h-37Zm0 0"/>
    </clipPath>
  </defs>
  <path d="M83.505 166.446h3.891c.633 0 .879.305.734.906L81.21 198.51c-.106.492-.407.734-.907.734H76.21c-.47 0-.774-.242-.907-.734l-6.89-31.157c-.137-.601.113-.906.75-.906h3.89c.489 0 .79.246.907.735l4.296 21.968 4.344-21.968c.133-.489.438-.735.906-.735ZM104.408 166.446h4.265c.438 0 .657.219.657.656v31.485c0 .437-.22.656-.657.656h-4.265c-.438 0-.656-.219-.656-.656v-31.485c0-.437.218-.656.656-.656ZM125.57 166.446h15.077c.438 0 .657.219.657.656v4.094c0 .438-.22.656-.657.656h-4.75v26.735c0 .437-.218.656-.656.656h-4.265c-.438 0-.657-.219-.657-.656v-26.735h-4.75c-.437 0-.656-.218-.656-.656v-4.094c0-.437.219-.656.656-.656ZM207.568 193.837v-26.735c0-.437-.219-.656-.656-.656h-4.266c-.437 0-.656.219-.656.656v31.485c0 .437.219.656.656.656h14.688c.437 0 .656-.219.656-.656v-4.094c0-.437-.219-.656-.656-.656ZM235.032 166.446h4.266c.437 0 .656.219.656.656v31.485c0 .437-.219.656-.656.656h-4.266c-.437 0-.656-.219-.656-.656v-31.485c0-.437.219-.656.656-.656ZM257.334 166.446h15.422c.656 0 .86.328.61.985l-10.204 26.406h9.016c.437 0 .656.219.656.656v4.047c0 .418-.219.652-.656.703h-15.953c-.324 0-.54-.094-.64-.281-.095-.195-.087-.43.03-.703l10.204-26.36h-8.485c-.437 0-.656-.218-.656-.656v-4.11c0-.406.219-.632.656-.687ZM305.792 167.102v4.094c0 .469-.219.703-.656.703h-10.25v8.203h7.828c.437 0 .656.231.656.688v4.062c0 .47-.219.704-.656.704h-7.828v8.28h10.25c.437 0 .656.22.656.657v4.094c0 .437-.219.656-.656.656h-15.078c-.418 0-.625-.219-.625-.656v-31.485c0-.437.207-.656.625-.656h15.078c.437 0 .656.219.656.656Zm0 0" fill="#d9d9d9"/>
  <path d="M234.08 208.037c.75 0 1.395.125 1.938.375.55.25.972.605 1.265 1.062.301.461.453.997.453 1.61 0 .625-.152 1.168-.453 1.625-.293.46-.715.812-1.265 1.062-.543.243-1.188.36-1.938.36h-1.687v2.312h-1.938v-8.406Zm-.094 4.5c.582 0 1.024-.125 1.328-.375.301-.25.454-.61.454-1.078 0-.469-.153-.828-.454-1.078-.304-.25-.746-.375-1.328-.375h-1.593v2.906ZM253.574 216.443l-1.61-2.344h-1.796v2.344h-1.938v-8.406h3.625c.75 0 1.395.125 1.938.375.55.25.973.605 1.266 1.062.3.461.453.997.453 1.61 0 .625-.153 1.168-.453 1.625-.305.449-.73.793-1.282 1.031l1.89 2.703Zm-.031-5.36c0-.468-.152-.827-.453-1.077-.305-.25-.746-.375-1.328-.375h-1.594v2.922h1.594c.582 0 1.023-.125 1.328-.375.3-.258.453-.625.453-1.094ZM266.042 208.037h1.937v8.406h-1.937ZM286.614 216.443l-.015-5.047-2.469 4.157h-.875l-2.469-4.047v4.937h-1.812v-8.406h1.61l3.14 5.219 3.094-5.22h1.593l.032 8.407ZM305.922 214.88v1.563h-6.5v-8.406h6.344v1.562h-4.422v1.829h3.907v1.515h-3.907v1.938Zm0 0" fill="#ffbd59"/>
  <path d="M83.505 164.528h3.891c.633 0 .879.305.734.906l-6.921 31.157c-.106.492-.407.734-.907.734H76.21c-.47 0-.774-.242-.907-.734l-6.89-31.157c-.137-.601.113-.906.75-.906h3.89c.489 0 .79.246.907.735l4.296 21.968 4.344-21.968c.133-.489.438-.735.906-.735ZM104.408 164.528h4.265c.438 0 .657.219.657.656v31.485c0 .437-.22.656-.657.656h-4.265c-.438 0-.656-.219-.656-.656v-31.485c0-.437.218-.656.656-.656ZM125.57 164.528h15.077c.438 0 .657.219.657.656v4.094c0 .438-.22.656-.657.656h-4.75v26.735c0 .437-.218.656-.656.656h-4.265c-.438 0-.657-.219-.657-.656v-26.735h-4.75c-.437 0-.656-.218-.656-.656v-4.094c0-.437.219-.656.656-.656ZM207.568 191.919v-26.735c0-.437-.219-.656-.656-.656h-4.266c-.437 0-.656.219-.656.656v31.485c0 .437.219.656.656.656h14.688c.437 0 .656-.219.656-.656v-4.094c0-.437-.219-.656-.656-.656ZM235.032 164.528h4.266c.437 0 .656.219.656.656v31.485c0 .437-.219.656-.656.656h-4.266c-.437 0-.656-.219-.656-.656v-31.485c0-.437.219-.656.656-.656ZM257.334 164.528h15.422c.656 0 .86.328.61.985l-10.204 26.406h9.016c.437 0 .656.219.656.656v4.047c0 .418-.219.652-.656.703h-15.953c-.324 0-.54-.094-.64-.281-.095-.196-.087-.43.03-.703l10.204-26.36h-8.485c-.437 0-.656-.218-.656-.656v-4.11c0-.406.219-.632.656-.687ZM305.792 165.184v4.094c0 .469-.219.703-.656.703h-10.25v8.203h7.828c.437 0 .656.23.656.688v4.062c0 .47-.219.704-.656.704h-7.828v8.28h10.25c.437 0 .656.22.656.657v4.094c0 .437-.219.656-.656.656h-15.078c-.418 0-.625-.219-.625-.656v-31.485c0-.437.207-.656.625-.656h15.078c.437 0 .656.219.656.656Zm0 0" fill="#d9d9d9"/>
  <g clip-path="url(#a)">
    <path fill="#ffbd59" d="M172.223 189.246a39.894 39.894 0 0 1-3.243-2.016l-.136-.109-.14-.078a59.007 59.007 0 0 1-1.907-1.39l-.031-.032-.137-.078-.106-.078-.03-.031-.138-.106-.136-.11-.028-.027-.109-.082-.027-.027-.137-.11-.137-.105h-.031l-.105-.11h-.032l-.136-.109v-.035l-.137-.11h-.028l-.136-.136 7.304-11.445 7.11 11.172c-3.227 2.754-6.547 4.683-7.367 5.152Zm.273-9.379a2.923 2.923 0 0 1 2.918 2.918 2.926 2.926 0 0 1-2.918 2.918 2.923 2.923 0 0 1-2.918-2.918 2.92 2.92 0 0 1 2.918-2.918Zm-10.816 1.094a8.607 8.607 0 0 1-.489-.547v-.031a.442.442 0 0 1-.136-.188h-.032c-.136-.183-.3-.379-.437-.597h-.024c-.027-.055-.078-.106-.105-.164l-.031-.059c-.055-.059-.078-.105-.106-.137l-.03-.058c-.06-.055-.08-.106-.106-.164l-.032-.028c-.058-.082-.105-.136-.136-.187l-.028-.024c-2.343-3.593-3.054-7.707.82-11.636 0 0-7.984.765-6.269 9.05.598 2.832 2.45 5.778 4.8 8.473l-4.667 7.305h5.7l2.398-3.79c3.73 3.458 7.707 6.102 9.457 6.895 1.824-.812 5.968-3.574 9.812-7.195l2.59 4.082h5.691l-4.879-7.656c2.184-2.618 3.899-5.399 4.465-8.121 1.746-8.286-6.238-9.047-6.238-9.047 4.527 4.601 2.781 9.48-.566 13.465l-10.606-16.594Zm0 0"/>
  </g>
</svg>