<svg xmlns="http://www.w3.org/2000/svg" width="500" height="116" version="1.0" viewBox="0 0 375 87">
  <defs>
    <clipPath id="a">
      <path d="M138 8.29h54V54h-54Zm0 0"/>
    </clipPath>
  </defs>
  <path fill="#d9d9d9" d="M35.337 11.863h5.688c.925 0 1.289.437 1.093 1.312L31.978 58.77c-.168.719-.61 1.078-1.328 1.078h-6c-.68 0-1.118-.36-1.313-1.078L13.26 13.175c-.2-.875.16-1.312 1.078-1.312h5.703c.719 0 1.156.36 1.313 1.078l6.297 32.156 6.359-32.156c.195-.719.64-1.078 1.328-1.078Zm30.583 0h6.25c.634 0 .954.32.954.953v46.078c0 .637-.32.953-.953.953h-6.25c-.637 0-.953-.316-.953-.953V12.816c0-.633.316-.953.953-.953Zm30.967 0h22.063c.644 0 .968.32.968.953v6c0 .649-.324.969-.968.969h-6.954v39.11c0 .636-.32.952-.953.952h-6.25c-.636 0-.953-.316-.953-.953v-39.11h-6.953c-.648 0-.969-.32-.969-.968v-6c0-.633.32-.953.969-.953Zm119.985 40.062V12.816c0-.633-.32-.953-.953-.953h-6.25c-.637 0-.953.32-.953.953v46.078c0 .637.316.953.953.953h21.484c.633 0 .953-.316.953-.953v-6c0-.644-.32-.969-.953-.969Zm40.186-40.062h6.25c.633 0 .953.32.953.953v46.078c0 .637-.32.953-.953.953h-6.25c-.637 0-.953-.316-.953-.953V12.816c0-.633.316-.953.953-.953Zm32.638 0h22.562c.957 0 1.254.48.891 1.437l-14.937 38.625h13.203c.632 0 .953.325.953.97v5.937c0 .593-.32.933-.953 1.015H288.07c-.48 0-.793-.14-.938-.422-.136-.28-.12-.617.047-1.015l14.938-38.578h-12.422c-.637 0-.953-.317-.953-.953v-6c0-.602.316-.942.953-1.016Zm70.909.953v6c0 .68-.325 1.016-.969 1.016h-14.984v12h11.453c.633 0 .953.34.953 1.015V38.8c0 .68-.32 1.016-.953 1.016h-11.453v12.11h14.984c.644 0 .969.324.969.968v6c0 .637-.325.953-.969.953h-22.063c-.605 0-.906-.316-.906-.953V12.816c0-.633.301-.953.906-.953h22.063c.644 0 .969.32.969.953Zm0 0"/>
  <path fill="#ffbd59" d="M254.803 68.821c1.094 0 2.04.184 2.844.547.8.367 1.414.883 1.844 1.547.437.668.656 1.453.656 2.36 0 .906-.219 1.699-.656 2.374-.43.668-1.043 1.18-1.844 1.532-.805.355-1.75.53-2.844.53h-2.469v3.392h-2.843V68.82Zm-.156 6.578c.851 0 1.504-.18 1.953-.546.445-.375.672-.899.672-1.579 0-.687-.227-1.21-.672-1.578-.45-.375-1.102-.562-1.953-.562h-2.313v4.265Zm28.682 5.704-2.375-3.422h-2.61v3.422h-2.843V68.82h5.312c1.094 0 2.04.184 2.844.547.8.367 1.414.883 1.844 1.547.437.668.656 1.453.656 2.36 0 .917-.219 1.71-.656 2.374-.438.657-1.063 1.157-1.875 1.5l2.75 3.954Zm-.047-7.829c0-.687-.227-1.21-.672-1.578-.45-.375-1.102-.562-1.953-.562h-2.313v4.281h2.313c.851 0 1.504-.187 1.953-.562.445-.375.672-.899.672-1.579Zm18.281-4.453h2.844v12.282h-2.844Zm30.11 12.282-.03-7.375-3.61 6.078h-1.281l-3.594-5.922v7.219h-2.672V68.82h2.36l4.593 7.625 4.531-7.625h2.328l.032 12.282Zm28.25-2.282v2.282h-9.515V68.82h9.281v2.282h-6.453v2.671h5.703v2.204h-5.703v2.843Zm0 0"/>
  <g clip-path="url(#a)">
    <path fill="#ffbd59" d="M164.59 45.227a58.06 58.06 0 0 1-4.746-2.954l-.2-.156-.199-.117a74.2 74.2 0 0 1-2.797-2.035l-.043-.04-.199-.116-.156-.118-.043-.043-.2-.156-.202-.16-.043-.039-.157-.117-.042-.043-.2-.156-.199-.16h-.043l-.16-.157h-.04l-.202-.16v-.05l-.2-.16h-.042l-.2-.2 10.692-16.758 10.406 16.355c-4.723 4.028-9.582 6.856-10.785 7.54Zm.398-13.727a4.281 4.281 0 0 1 4.274 4.27 4.281 4.281 0 0 1-4.274 4.27 4.278 4.278 0 0 1-4.27-4.27 4.278 4.278 0 0 1 4.27-4.27Zm-15.824 1.602a13.446 13.446 0 0 1-.719-.801v-.043a.728.728 0 0 1-.199-.274h-.043c-.2-.273-.441-.558-.644-.875h-.032c-.043-.086-.117-.16-.156-.242l-.043-.086c-.086-.086-.117-.156-.16-.199l-.04-.086c-.085-.082-.116-.156-.16-.242l-.042-.043c-.082-.113-.156-.2-.2-.273l-.042-.032c-3.426-5.261-4.47-11.281 1.203-17.031 0 0-11.684 1.121-9.176 13.246.879 4.145 3.586 8.457 7.023 12.399l-6.832 10.695h8.34l3.512-5.547c5.465 5.062 11.285 8.93 13.848 10.09 2.668-1.192 8.73-5.23 14.359-10.535l3.785 5.98h8.332l-7.14-11.207c3.195-3.828 5.707-7.898 6.539-11.887 2.55-12.125-9.133-13.242-9.133-13.242 6.625 6.738 4.07 13.875-.832 19.707L164.988 8.29Zm0 0"/>
  </g>
</svg>