<svg xmlns="http://www.w3.org/2000/svg" viewBox="0 0 1000 300">
  <defs>
    <style>
      .cls-2{fill:#091218}
    </style>
  </defs>
  <g id="Layer_1">
    <path fill="#f99c1c" d="M181.51 149.42c-1.81-2.87-3.45-5.39-5.01-7.96-5.06-8.33-8.75-17.25-11.09-26.7-.23-.92-.09-2.1.29-2.98 3.5-8.14 7.09-16.24 10.64-24.35 4.48-10.2 8.96-20.4 13.41-30.61.41-.94.84-1.46 2.02-1.46 10.47.05 20.95.02 31.42.01.28 0 .55.04 1.13.09-14.26 31.3-28.45 62.43-42.81 93.96Zm-127.12-.24c-14.25-31.46-28.33-62.53-42.46-93.72h33.72c1.94 4.37 3.92 8.79 5.86 13.22 5.74 13.08 11.29 26.24 17.28 39.21 1.97 4.26 1.94 7.95.5 12.31-3.26 9.85-7.95 18.89-13.7 27.45-.26.38-.56.72-1.2 1.54Zm14.83 44.69c4.92-.77 8.75-3.44 12.14-6.7.51 3.78.7 7.54 1.57 11.14 2.65 11.04 8.43 19.89 18.68 25.39 1.08.58 2.09 1.06 3.08-.36 1.56 2.56 2.88 5.02 4.49 7.28 2.33 3.27 4.87 6.4 7.32 9.59.97 1.26 1.82 1.27 2.97.06 4.01-4.23 7.33-8.92 10.03-14.07.48-.91 1.02-1.79 1.61-2.82 1.89 1.64 3.43.51 4.88-.37 7.64-4.64 12.71-11.37 15.76-19.7 1.95-5.32 2.69-10.84 2.63-16.87 3.65 3.62 7.21 6.87 12.38 7.38-4.01 22.09-11.99 41.68-31.15 54.95 1.21-4.51 1.86-8.99.9-13.74-.92 2.21-1.93 4.39-2.75 6.64-3.6 9.9-7.86 19.46-14.04 28.07-.51.71-1.03 1.4-1.66 2.25-8.41-11.26-13.37-24.12-18.55-36.9-1.18 4.69-.2 9.13 1.22 13.78-3.56-1.71-6.25-4.17-8.79-6.77-6.98-7.16-12.13-15.52-15.98-24.7-2.87-6.85-5.01-13.91-6.07-21.28-.1-.73-.42-1.43-.68-2.26Z"/>
    <path fill="#333" d="M95.43 110.87c-.05.14-.09.29-.09.43 0 1.54 2.55 2.78 5.69 2.78 2.32 0 4.3-.68 5.19-1.65-3.59-.52-7.19-1.05-10.79-1.56Zm35.07 1.56c.89.97 2.87 1.65 5.19 1.65 3.14 0 5.69-1.25 5.69-2.78 0-.15-.04-.29-.09-.43-3.6.52-7.19 1.04-10.79 1.56Z"/>
    <path d="M92.74 103.88c2.82.37 6.14.79 9.45 1.24 2.57.34 5.14.7 7.7 1.08.79.12 1.6.27 2.29.53 1.66.61 2.33 1.76 1.72 2.71-.75 1.18-2.32 1.69-4.27 1.4-5.12-.75-10.24-1.5-15.36-2.23-.96-.14-1.96-.18-2.93-.31-2.1-.29-3-1.1-2.79-2.45.18-1.14 1.81-2.01 4.2-1.97Zm51.24 0c-2.82.37-6.14.79-9.45 1.24-2.57.34-5.14.7-7.7 1.08-.79.12-1.6.27-2.29.53-1.66.61-2.33 1.76-1.72 2.71.75 1.18 2.32 1.69 4.27 1.4 5.12-.75 10.24-1.5 15.36-2.23.96-.14 1.96-.18 2.93-.31 2.1-.29 3-1.1 2.79-2.45-.18-1.14-1.81-2.01-4.2-1.97Z" class="cls-2"/>
    <path d="M147.56 78.93c1.32-3.8 3.76-7.59.69-11.38-1.17 3.43-2.37 6.92-3.57 10.41-.48 1.4-1.29 2.12-2.9 2.5-7.73 1.84-15.3 4.19-22.21 8.26-.96.57-1.66.56-2.68-.01-6.02-3.42-12.47-5.9-19.21-7.3-4.17-.86-6.43-2.97-7.4-6.91-.61-2.48-1.3-4.95-1.97-7.49-2.95 4.05-1.17 7.91.52 11.71-.11.16-.17.31-.24.32-3.93.37-4.52 1.04-4.52 5.08 0 4.85 0 9.71-.08 14.56 0 .65-.29 1.38-.65 1.93-1.06 1.61-2.14 3.22-3.38 4.67-.52.6-1.48.83-2.24 1.22-.42-.82-1.19-1.63-1.2-2.46-.11-5.79-.19-11.59-.01-17.38.1-3.42.23-6.94 1.13-10.21 2.96-10.74 9.82-18.42 19.73-23.31 3.85-1.9 7.9-3.45 11.97-4.87 6.23-2.17 12.48-1.88 18.72.24 8.1 2.75 15.75 6.24 21.75 12.56 6.4 6.75 10 14.7 9.94 24.14-.04 5.97-.03 11.94-.07 17.91 0 .75-.07 1.54-.31 2.24-.48 1.34-2.18 1.57-3.02.41-1.27-1.75-2.52-3.51-3.64-5.35-.4-.65-.57-1.53-.58-2.31-.05-4.56-.02-9.13-.02-13.69 0-4.42-.26-4.75-4.55-5.51ZM98.7 66.58c.43 1.91.83 3.84 1.31 5.74.25.99.67 2.02 1.99 1.64 1.32-.38 1.51-1.42 1.26-2.66-.28-1.36-.59-2.74-.65-4.12-.18-4.09.99-7.8 3.36-11.14.27-.38.19-1.01.28-1.52-.48 0-1.05-.18-1.43.01-.71.36-1.42.83-1.93 1.43-2.58 3.03-3.89 6.57-4.18 10.63Zm36.93-4.87c-.21.94-.33 1.49-.46 2.04-.98 4.18-1.48 8.51-3.75 12.3-.67 1.12-.74 2.19.52 2.82 1.32.67 1.7-.6 2.17-1.4 2.82-4.84 3.51-9.94 1.52-15.77ZM113 29.77c1.54-.24 3.09-.24 4.62-.04-.11-.2-.2-.4-.32-.59-1.55-2.44-3.64-3.4-5.58-3.09-1.95.27-3.67 1.8-4.44 4.59-.11.41-.2.83-.26 1.26 1.82-1.1 3.85-1.83 5.98-2.13Zm71.84 158.39c-6.57-7.34-9.92-16.06-11.63-25.74 2.47.62 4.66 1.07 6.9-.25-1.99-2.24-3.98-4.22-5.67-6.43-6.91-8.99-11.59-19.12-15.07-29.84-.97-2.99-1.73-6.05-2.69-9.04-.18-.55-.82-1.33-1.26-1.34-.5 0-1.27.62-1.48 1.15-.41 1-.53 2.13-.75 3.21-.66 3.25-1.14 6.55-2 9.75-1.04 3.86-3.02 7.3-5.64 10.28 2.96 3.73 6.05 2.5 10.33-4.2.5 1.68 1.02 3.05 1.32 4.47.58 2.71.03 5.19-2.25 6.93-2.27 1.71-4.81 1.82-7.21.28-1.5-.97-2.86-2.2-4.14-3.45-2.17-2.12-4.11-4.49-6.35-6.51-5.01-4.53-12.16-5.35-17.93-2.14-.97.54-1.62.5-2.55.03-5.02-2.53-10.18-2.96-15.01.19-2.65 1.73-4.81 4.2-7.21 6.32-2.3 2.03-4.37 4.53-7.01 5.94-4.34 2.32-8.85-.83-8.65-5.76.08-2.09.73-4.15 1.12-6.22.94.83 1.38 1.7 1.93 2.49.59.86 1.21 1.73 1.95 2.46 2.05 2 4.84 1.65 6.6-.79-.49-.62-1.01-1.24-1.49-1.89-3.11-4.19-4.51-9.04-5.48-14.07-.47-2.46-.93-4.93-1.52-7.37-.12-.47-.83-.97-1.35-1.1-.27-.06-.92.61-1.07 1.06-1.26 3.94-2.33 7.95-3.68 11.85-3.6 10.43-8.3 20.3-15.51 28.78-1.42 1.67-3 3.21-4.68 4.99 2.36 1.42 4.63.63 7.06.35-1.6 9.69-5.24 18.31-11.98 25.98 5.54-1.18 9.99-3.34 13.86-6.72 3.83-3.35 6.93-7.31 9.67-11.6.11 6.69-2.21 12.42-6.86 17.45 7.87-.97 12.74-5.84 17.09-12.05.04 7.22.03 13.85 2.2 20.31 2.21 6.61 5.39 12.52 10.81 17.05.47.4 1.17.52 1.77.77 0-.69.15-1.42-.03-2.06-.5-1.73-1.28-3.39-1.69-5.14-1.82-7.69-2.18-15.5-1.36-23.34.38-3.61 1.2-7.15 3.08-10.34.34-.58.84-1.07 1.27-1.6-2.95 23.16 3 43.53 17.55 62.03 14.89-18.63 20.43-39.24 17.45-62.37 1.05 1.32 2.13 2.59 2.46 4.04.97 4.37 2.09 8.77 2.34 13.21.46 8.27-.62 16.43-3.52 24.28-.16.43-.02.97-.02 1.46 12.92-9.69 14.91-23.43 14.64-38.22 4.56 5.92 9.24 11.2 16.96 11.92-1.65-2.68-3.44-5.24-4.87-7.99-1.5-2.87-1.79-6.05-1.53-9.32 5.57 8.59 11.79 16.26 22.79 17.87Zm-66.56-34.01s-24.33.62-24.33-2.39c5.59-9.65 22.33-6.84 24.33-6.47 2-.38 18.74-3.19 24.33 6.47 0 3.01-24.33 2.39-24.33 2.39Z" class="cls-2"/>
    <path d="M118.03 149.37c-2.74-1.4-16.59.15-16.59.15 7.48-.41 14.63.81 16.59.62 1.95.19 9.11-1.03 16.59-.62 0 0-13.84-1.54-16.59-.15Zm12.43-113.98c-2.97-3.2-7.85-4.72-12.86-4.69-5.01-.02-9.89 1.49-12.86 4.69-1.4 1.51-2.16 3.2-2.3 4.87 3.52-1.4 13.59-5.12 13.97-1.93 0 0-5.66-.38-11.07 2.42-1.29.67-2.19 1.01-2.83 1.16.1.59.28 1.17.53 1.72 3.95-1.54 13.01-4.71 13.36-1.69 0 0-5.66-.38-11.07 2.42-.54.28-1.02.5-1.43.68.66.86 1.53 1.64 2.62 2.29 3.05-1.56 7.04-2.36 11.07-2.42 4.03.06 8.02.87 11.07 2.42 4.69-2.82 5.47-7.98 1.78-11.95Zm149.85 50.15c1.77 0 2.84 1.06 2.84 2.84v136.27c0 1.78-1.07 2.84-2.84 2.84h-18.45c-1.95 0-2.84-1.06-2.84-2.84V88.37c0-1.77.89-2.84 2.84-2.84h18.45Zm129.51 0c1.95 0 2.84 1.06 2.84 2.84v17.74c0 1.77-.89 2.84-2.84 2.84h-20.58v115.68c0 1.95-.89 2.84-2.84 2.84h-18.45c-1.78 0-2.84-.89-2.84-2.84V108.96h-20.58c-1.78 0-2.84-1.06-2.84-2.84V88.38c0-1.77 1.06-2.84 2.84-2.84h65.29Zm112.13 141.94c-1.6 0-2.48-.89-2.84-2.48l-4.97-25.91h-31.58L477.77 225c-.35 1.6-1.24 2.48-2.84 2.48h-18.98c-1.95 0-2.84-1.06-2.31-3.02l29.45-136.44c.35-1.77 1.42-2.48 3.02-2.48h24.66c1.6 0 2.66.71 3.02 2.48l29.45 136.44c.35 1.95-.35 3.02-2.48 3.02h-18.81Zm-23.6-110.89-11.36 61.92h22.71l-11.36-61.92ZM697.6 85.54c2.31 0 3.55 1.24 3.55 3.55v134.85c0 2.31-1.24 3.55-3.55 3.55h-16.5c-2.31 0-3.55-1.24-3.55-3.55V144.1h-1.24l-17.56 80.2c-.53 2.13-1.78 3.19-3.9 3.19h-8.69c-2.13 0-3.37-1.06-3.9-3.19l-17.57-80.2h-1.24v79.84c0 2.31-1.24 3.55-3.55 3.55h-16.32c-2.31 0-3.55-1.24-3.55-3.55V89.08c0-2.31 1.24-3.55 3.55-3.55H627c2.13 0 3.37 1.06 3.9 3.19l19.7 88.36 19.7-88.36c.53-2.13 1.77-3.19 3.9-3.19h23.42Zm128.81 141.94c-1.6 0-2.48-.89-2.84-2.48l-4.97-25.91h-31.58L782.23 225c-.35 1.6-1.24 2.48-2.84 2.48h-18.98c-1.95 0-2.84-1.06-2.31-3.02l29.45-136.44c.35-1.77 1.42-2.48 3.02-2.48h24.66c1.6 0 2.66.71 3.02 2.48l29.45 136.44c.35 1.95-.35 3.02-2.48 3.02h-18.81Zm-23.6-110.89-11.36 61.92h22.71l-11.36-61.92Zm176.36-31.05c1.77 0 2.84 1.06 2.84 2.84v136.27c0 1.78-1.06 2.84-2.84 2.84H961.6c-1.6 0-2.66-.71-3.19-2.31l-27.15-75.76h-.89v75.23c0 1.78-.89 2.84-2.84 2.84h-18.45c-1.77 0-2.84-1.06-2.84-2.84V88.37c0-1.77 1.06-2.84 2.84-2.84h17.57c1.6 0 2.66.71 3.19 2.31l26.97 75.41h1.06V88.37c0-1.77.89-2.84 2.84-2.84h18.45Z" class="cls-2"/>
  </g>
</svg>